<?xml version="1.0" encoding="iso-8859-1"?>
<!-- Generator: Adobe Illustrator 18.1.1, SVG Export Plug-In . SVG Version: 6.00 Build 0)  -->
<svg version="1.1" id="Capa_1" xmlns="http://www.w3.org/2000/svg" xmlns:xlink="http://www.w3.org/1999/xlink" x="0px" y="0px"
	 viewBox="0 0 14.948 14.948" style="enable-background:new 0 0 14.948 14.948;" xml:space="preserve">
<g>
	<g>
		<path style="fill:#030104;" d="M13.54,3.645c-0.182-0.163-0.439-0.215-0.669-0.135c-0.003,0.001-0.884,0.123-0.884,0.123
			s-2.755-0.56-3.9-3.229C7.983,0.165,7.753,0.008,7.493,0c-0.278-0.005-0.5,0.137-0.616,0.37C5.532,3.067,2.881,3.633,2.881,3.633
			L2.1,3.52C1.869,3.427,1.605,3.471,1.417,3.634C1.228,3.797,1.146,4.051,1.204,4.293c0.423,1.78,2.715,10.655,6.27,10.655
			s5.846-8.875,6.27-10.655C13.8,4.056,13.721,3.808,13.54,3.645z"/>
	</g>
</g>
<g>
</g>
<g>
</g>
<g>
</g>
<g>
</g>
<g>
</g>
<g>
</g>
<g>
</g>
<g>
</g>
<g>
</g>
<g>
</g>
<g>
</g>
<g>
</g>
<g>
</g>
<g>
</g>
<g>
</g>
</svg>
