<?xml version="1.0" encoding="iso-8859-1"?>
<!-- Generator: Adobe Illustrator 18.0.0, SVG Export Plug-In . SVG Version: 6.00 Build 0)  -->
<!DOCTYPE svg PUBLIC "-//W3C//DTD SVG 1.1//EN" "http://www.w3.org/Graphics/SVG/1.1/DTD/svg11.dtd">
<svg version="1.1" id="Capa_1" xmlns="http://www.w3.org/2000/svg" xmlns:xlink="http://www.w3.org/1999/xlink" x="0px" y="0px"
	 viewBox="0 0 458.14 458.14" style="enable-background:new 0 0 458.14 458.14;" xml:space="preserve">
<path id="XMLID_1213_" d="M407,6.094C403.572,2.219,398.647,0,393.473,0H212.786c-5.136,0-10.028,2.186-13.455,6.012
	c-3.426,3.826-5.062,8.929-4.497,14.034l22.509,203.623c3.301,46.256-26.045,88.572-70.524,101.693l-36.605,10.798
	c-27.782,8.195-46.853,33.703-46.853,62.669v0.77c-5.339-1.07-10.759,1.925-12.597,7.19l-3.543,10.152
	c-0.98,2.807-0.784,5.893,0.537,8.556c1.321,2.664,3.658,4.684,6.486,5.604c54.638,17.781,112.381,26.862,169.956,26.862
	c15.28,0,28.375-0.64,42.761-1.927c5.724-0.512,10.096-5.298,10.074-11.044l-0.069-17.787h28.268l0.355,17.872
	c0.099,4.996,3.52,9.298,8.368,10.51c4.967,1.241,12.254,2.45,23.052,2.45c18.631,0,43.585,1.388,56.084-6.079
	c3.6-2.15,5.676-6.166,5.356-10.346l-2.171-28.353l0,0c9.835-49.999-11.503-102.705-19.264-113.131l34.386-279.865
	C412.03,15.128,410.428,9.969,407,6.094z"/>
<g>
</g>
<g>
</g>
<g>
</g>
<g>
</g>
<g>
</g>
<g>
</g>
<g>
</g>
<g>
</g>
<g>
</g>
<g>
</g>
<g>
</g>
<g>
</g>
<g>
</g>
<g>
</g>
<g>
</g>
</svg>
